<svg aria-hidden="true" style="position:absolute;width:0;height:0;overflow:hidden" xmlns="http://www.w3.org/2000/svg">
    <defs>
        <symbol id="gulp" viewBox="0 0 40 40">
            <path xmlns="http://www.w3.org/2000/svg" id="Path" fill-rule="evenodd" clip-rule="evenodd" d="M27.9907 1H13.0086C11.4015 1 10.14 2.39007 10.2798 4.00271L12.5687 30.2952C12.6802 31.572 13.6417 32.5748 14.8599 32.7744V37.3771C14.8599 38.2745 15.5794 39 16.467 39H24.5331C25.4207 39 26.1402 38.2745 26.1402 37.3771V32.7744C27.3584 32.574 28.3191 31.572 28.4314 30.2952L30.7203 4.00271C30.8593 2.39007 29.5978 1 27.9907 1Z" fill="#526E3E"/>    
        </symbol>
        <symbol id="flower" viewBox="0 0 40 40">
            <path fill-rule="evenodd" clip-rule="evenodd" d="M33.3788 20.2554C33.3242 20.2008 33.2647 20.155 33.2085 20.102C33.2639 20.0489 33.3242 20.0031 33.3788 19.9485L35.2573 18.07C38.9276 14.3998 38.9276 8.44852 35.2573 4.7783C31.5871 1.10808 25.6358 1.10808 21.9656 4.7783L20.0871 6.6568C20.0598 6.68412 20.0373 6.71465 20.01 6.74197C19.9827 6.71465 19.9602 6.68412 19.9329 6.6568L18.0544 4.7783C14.3841 1.10808 8.43288 1.10808 4.76266 4.7783C1.09244 8.44852 1.09244 14.3998 4.76266 18.07L6.64116 19.9485C6.6958 20.0031 6.75525 20.0489 6.81149 20.102C6.75606 20.155 6.6958 20.2008 6.64116 20.2554L4.76266 22.1339C1.09244 25.8041 1.09244 31.7554 4.76266 35.4256C8.43288 39.0958 14.3841 39.0958 18.0544 35.4256L19.9329 33.5471C19.9602 33.5198 19.9827 33.4893 20.01 33.462C20.0373 33.4893 20.0598 33.5198 20.0871 33.5471L21.9656 35.4256C25.6358 39.0958 31.5871 39.0958 35.2573 35.4256C38.9276 31.7554 38.9276 25.8041 35.2573 22.1339L33.3788 20.2554ZM20.01 25.2104C17.189 25.2104 14.9016 22.9237 14.9016 20.102C14.9016 17.2802 17.1882 14.9935 20.01 14.9935C22.8318 14.9935 25.1184 17.2802 25.1184 20.102C25.1184 22.9237 22.831 25.2104 20.01 25.2104Z" fill="#526E3E"/>
        </symbol>
        <symbol id="green" viewBox="0 0 40 40">
            <path fill-rule="evenodd" clip-rule="evenodd" d="M20 14.6362C15.0104 3.20545 2 5.12065 2 5.12065C3.41048 13.4993 5.7152 19.5048 14.155 21.1896C17.2273 21.8023 17.9343 23.7989 18.0906 24.5067C18.0862 24.745 18.0826 24.9862 18.0826 25.2303L18.133 32.917V36.3334H21.867V32.917L21.9174 25.2303C21.9174 24.9862 21.9138 24.745 21.9094 24.5067C22.0657 23.7989 22.7734 21.8023 25.845 21.1896C34.2848 19.5048 36.5895 13.4993 38 5.12065C38 5.12065 24.9896 3.20545 20 14.6362Z" fill="#526E3E"/>
        </symbol>
         <symbol id="instagram" viewBox="0 0 20 20">
            <path d="M19.9804 5.88005C19.9336 4.81738 19.7617 4.0868 19.5156 3.45374C19.2616 2.78176 18.8709 2.18014 18.359 1.68002C17.8589 1.1721 17.2533 0.777435 16.5891 0.527447C15.9524 0.281274 15.2256 0.109427 14.163 0.0625732C13.0924 0.0117516 12.7525 0 10.0371 0C7.32173 0 6.98185 0.0117516 5.91521 0.0586052C4.85253 0.105459 4.12195 0.277459 3.48904 0.523479C2.81692 0.777435 2.2153 1.16814 1.71517 1.68002C1.20726 2.18014 0.812743 2.78573 0.562603 3.44992C0.31643 4.0868 0.144583 4.81341 0.0977294 5.87609C0.0469078 6.9467 0.0351562 7.28658 0.0351562 10.002C0.0351562 12.7173 0.0469078 13.0572 0.0937614 14.1239C0.140615 15.1865 0.312615 15.9171 0.558787 16.5502C0.812743 17.2221 1.20726 17.8238 1.71517 18.3239C2.2153 18.8318 2.82088 19.2265 3.48508 19.4765C4.12195 19.7226 4.84856 19.8945 5.91139 19.9413C6.97788 19.9883 7.31791 19.9999 10.0333 19.9999C12.7487 19.9999 13.0885 19.9883 14.1552 19.9413C15.2179 19.8945 15.9484 19.7226 16.5813 19.4765C17.9254 18.9568 18.9881 17.8941 19.5078 16.5502C19.7538 15.9133 19.9258 15.1865 19.9727 14.1239C20.0195 13.0572 20.0313 12.7173 20.0313 10.002C20.0313 7.28658 20.0273 6.9467 19.9804 5.88005ZM18.1794 14.0457C18.1364 15.0225 17.9723 15.5499 17.8356 15.9015C17.4995 16.7728 16.808 17.4643 15.9367 17.8004C15.5851 17.9372 15.0538 18.1012 14.0809 18.1441C13.026 18.1911 12.7096 18.2027 10.0411 18.2027C7.37255 18.2027 7.05221 18.1911 6.00113 18.1441C5.02438 18.1012 4.49693 17.9372 4.1453 17.8004C3.71171 17.6402 3.31704 17.3862 2.9967 17.0541C2.6646 16.7298 2.41065 16.3391 2.2504 15.9055C2.11365 15.5539 1.94959 15.0225 1.90671 14.0497C1.8597 12.9948 1.8481 12.6783 1.8481 10.0097C1.8481 7.34122 1.8597 7.02087 1.90671 5.96995C1.94959 4.99319 2.11365 4.46575 2.2504 4.11412C2.41065 3.68038 2.6646 3.28586 3.00067 2.96536C3.32483 2.63327 3.71553 2.37931 4.14927 2.21921C4.5009 2.08247 5.03231 1.9184 6.0051 1.87537C7.05999 1.82851 7.37652 1.81676 10.0449 1.81676C12.7174 1.81676 13.0337 1.82851 14.0848 1.87537C15.0616 1.9184 15.589 2.08247 15.9407 2.21921C16.3742 2.37931 16.7689 2.63327 17.0893 2.96536C17.4213 3.28967 17.6753 3.68038 17.8356 4.11412C17.9723 4.46575 18.1364 4.99701 18.1794 5.96995C18.2263 7.02484 18.238 7.34122 18.238 10.0097C18.238 12.6783 18.2263 12.9908 18.1794 14.0457Z"></path>
            <path d="M10.0371 4.8642C7.20074 4.8642 4.89941 7.16537 4.89941 10.0019C4.89941 12.8385 7.20074 15.1396 10.0371 15.1396C12.8737 15.1396 15.1749 12.8385 15.1749 10.0019C15.1749 7.16537 12.8737 4.8642 10.0371 4.8642ZM10.0371 13.3346C8.19702 13.3346 6.70442 11.8422 6.70442 10.0019C6.70442 8.16165 8.19702 6.66921 10.0371 6.66921C11.8774 6.66921 13.3698 8.16165 13.3698 10.0019C13.3698 11.8422 11.8774 13.3346 10.0371 13.3346Z"></path>
            <path d="M16.5775 4.6611C16.5775 5.32346 16.0404 5.86052 15.3779 5.86052C14.7155 5.86052 14.1785 5.32346 14.1785 4.6611C14.1785 3.99858 14.7155 3.46167 15.3779 3.46167C16.0404 3.46167 16.5775 3.99858 16.5775 4.6611Z"></path>
        </symbol>
        <symbol id="twitter" viewBox="0 0 20 20">
            <path d="M20 3.79875C19.2563 4.125 18.4637 4.34125 17.6375 4.44625C18.4875 3.93875 19.1363 3.14125 19.4412 2.18C18.6488 2.6525 17.7738 2.98625 16.8412 3.1725C16.0887 2.37125 15.0162 1.875 13.8462 1.875C11.5763 1.875 9.74875 3.7175 9.74875 5.97625C9.74875 6.30125 9.77625 6.61375 9.84375 6.91125C6.435 6.745 3.41875 5.11125 1.3925 2.6225C1.03875 3.23625 0.83125 3.93875 0.83125 4.695C0.83125 6.115 1.5625 7.37375 2.6525 8.1025C1.99375 8.09 1.3475 7.89875 0.8 7.5975C0.8 7.61 0.8 7.62625 0.8 7.6425C0.8 9.635 2.22125 11.29 4.085 11.6712C3.75125 11.7625 3.3875 11.8062 3.01 11.8062C2.7475 11.8062 2.4825 11.7913 2.23375 11.7362C2.765 13.36 4.2725 14.5538 6.065 14.5925C4.67 15.6838 2.89875 16.3412 0.98125 16.3412C0.645 16.3412 0.3225 16.3263 0 16.285C1.81625 17.4563 3.96875 18.125 6.29 18.125C13.835 18.125 17.96 11.875 17.96 6.4575C17.96 6.27625 17.9538 6.10125 17.945 5.9275C18.7588 5.35 19.4425 4.62875 20 3.79875Z"></path>
        </symbol>
        <symbol id="facebook" viewBox="0 0 20 20">
            <path d="M13.3308 3.32083H15.1567V0.140833C14.8417 0.0975 13.7583 0 12.4967 0C9.86416 0 8.06082 1.65583 8.06082 4.69917V7.5H5.15582V11.055H8.06082V20H11.6225V11.0558H14.41L14.8525 7.50083H11.6217V5.05167C11.6225 4.02417 11.8992 3.32083 13.3308 3.32083Z"></path>
        </symbol>              
        <symbol id="exit" viewBox="0 0 11 11">
            <path d="M11 1.10786L9.89214 0L5.5 4.39214L1.10786 0L0 1.10786L4.39214 5.5L0 9.89214L1.10786 11L5.5 6.60786L9.89214 11L11 9.89214L6.60786 5.5L11 1.10786Z"/>
        </symbol>
        <symbol id="man" viewBox="0 0 18 18">
            <path d="M9 9C10.6575 9 12 7.6575 12 6C12 4.3425 10.6575 3 9 3C7.3425 3 6 4.3425 6 6C6 7.6575 7.3425 9 9 9ZM9 10.5C6.9975 10.5 3 11.505 3 13.5V14.25C3 14.6625 3.3375 15 3.75 15H14.25C14.6625 15 15 14.6625 15 14.25V13.5C15 11.505 11.0025 10.5 9 10.5Z"/>
        </symbol>
        <symbol id="telephone" viewBox="0 0 18 18">
            <path d="M13.996 11.1226L12.1579 10.9127C11.7164 10.8621 11.2822 11.0141 10.971 11.3252L9.63945 12.6568C7.59144 11.6147 5.91251 9.94301 4.87041 7.88775L6.20922 6.54894C6.5204 6.23775 6.67237 5.80355 6.62171 5.3621L6.41185 3.53842C6.325 2.8075 5.70988 2.2575 4.97173 2.2575H3.71976C2.902 2.2575 2.22175 2.93776 2.2724 3.75552C2.65595 9.93577 7.59868 14.8713 13.7717 15.2548C14.5894 15.3055 15.2697 14.6252 15.2697 13.8075V12.5555C15.2769 11.8246 14.7269 11.2095 13.996 11.1226Z"/>
        </symbol>
        <symbol id="email" viewBox="0 0 18 18">
            <path d="M15 3H3C2.175 3 1.5075 3.675 1.5075 4.5L1.5 13.5C1.5 14.325 2.175 15 3 15H15C15.825 15 16.5 14.325 16.5 13.5V4.5C16.5 3.675 15.825 3 15 3ZM14.7 6.1875L9.3975 9.5025C9.1575 9.6525 8.8425 9.6525 8.6025 9.5025L3.3 6.1875C3.1125 6.0675 3 5.865 3 5.6475C3 5.145 3.5475 4.845 3.975 5.1075L9 8.25L14.025 5.1075C14.4525 4.845 15 5.145 15 5.6475C15 5.865 14.8875 6.0675 14.7 6.1875Z"/>
        </symbol>
    </defs>
</svg>